Coordinates
version=1
nRows=30
nColumns=30
inDegrees=yes

Units are S.I. units (second, meters, Newtons, ...)
Angles are in degrees.

endheader
time	floatyaw	floatroll	floatpitch	floatx	floaty	floatz	pro_sup_l	deviation_l	flexion_l	cmc_flexion_l	cmc_abduction_l	mp_flexion_l	ip_flexion_l	2mcp_flexion_l	2mcp_abduction_l	2pm_flexion_l	2md_flexion_l	3mcp_flexion_l	3mcp_abduction_l	3pm_flexion_l	3md_flexion_l	4mcp_flexion_l	4mcp_abduction_l	4pm_flexion_l	4md_flexion_l	5mcp_flexion_l	5mcp_abduction_l	5pm_flexion_l	5md_flexion_l
-0.495000	-4.263706	-0.696975	99.509199	-0.102909	-0.193326	-0.017267	89.343767	0.464813	-0.509030	15.990066	5.371132	-22.213465	-34.972821	37.860627	8.151800	47.563800	32.994397	22.051786	4.581094	49.000193	32.762705	11.683515	-4.852435	63.339723	42.570796	7.173931	-7.696526	61.965575	41.290078
-0.485000	-4.263706	-0.696975	99.509199	-0.102919	-0.193315	-0.017266	89.367426	0.483488	-0.518186	15.976123	5.357947	-22.224636	-34.981990	37.874167	8.130330	47.571019	32.991304	22.068581	4.579273	49.022752	32.760435	11.698675	-4.841435	63.336758	42.555561	7.201500	-7.692470	61.971265	41.274907
-0.475000	-4.263706	-0.696975	99.509199	-0.102923	-0.193308	-0.017263	89.385237	0.500299	-0.530884	15.959526	5.353379	-22.235725	-34.992148	37.888987	8.110620	47.593152	32.995895	22.096716	4.571925	49.045220	32.757652	11.713576	-4.829118	63.341076	42.542891	7.233925	-7.690979	61.982436	41.264095
-0.465000	-4.263706	-0.696975	99.509199	-0.102924	-0.193304	-0.017257	89.391153	0.508414	-0.542239	15.940291	5.353112	-22.245694	-35.001434	37.904603	8.092090	47.624067	33.005324	22.127475	4.561460	49.064433	32.755022	11.724451	-4.818506	63.351014	42.533955	7.263857	-7.688768	61.993374	41.255875
-0.455000	-4.263706	-0.696975	99.509199	-0.102926	-0.193299	-0.017244	89.384179	0.503649	-0.545474	15.918409	5.351318	-22.254498	-35.008393	37.919685	8.073438	47.655100	33.015064	22.148587	4.551938	49.078362	32.753769	11.728033	-4.812416	63.362764	42.528627	7.285711	-7.682927	61.997925	41.247092
-0.445000	-4.263706	-0.696975	99.509199	-0.102934	-0.193283	-0.017223	89.370398	0.486555	-0.534145	15.893676	5.344066	-22.262607	-35.012122	37.932248	8.052764	47.678082	33.020382	22.149123	4.547032	49.086990	32.755211	11.722368	-4.811867	63.372417	42.525694	7.297842	-7.672392	61.990431	41.233783
-0.435000	-4.263706	-0.696975	99.509199	-0.102950	-0.193247	-0.017193	89.362184	0.462439	-0.504250	15.866097	5.332871	-22.269804	-35.011931	37.939913	8.028496	47.688322	33.018118	22.124529	4.548192	49.092918	32.760471	11.707383	-4.815232	63.378296	42.523669	7.303330	-7.658994	61.966568	41.212227
-0.425000	-4.263706	-0.696975	99.509199	-0.102973	-0.193183	-0.017153	89.374549	0.439216	-0.455365	15.836325	5.326349	-22.274122	-35.006821	37.940563	8.000859	47.686493	33.008130	22.079241	4.554150	49.101868	32.770807	11.685003	-4.818849	63.382355	42.521772	7.308986	-7.647912	61.924704	41.180400
-0.415000	-4.263706	-0.696975	99.509199	-0.102996	-0.193085	-0.017104	89.419777	0.423656	-0.390274	15.805542	5.338512	-22.271812	-34.995239	37.933356	7.972871	47.678775	32.993743	22.025548	4.561799	49.122791	32.788285	11.658779	-4.818873	63.390041	42.520551	7.323120	-7.646976	61.867636	41.139342
-0.405000	-4.263706	-0.696975	99.509199	-0.103009	-0.192951	-0.017046	89.502590	0.417319	-0.312881	15.774770	5.383662	-22.258644	-34.975420	37.919149	7.949719	47.674933	32.980872	21.979110	4.567676	49.166180	32.815689	11.633042	-4.813293	63.408442	42.521661	7.353164	-7.664172	61.803406	41.093544
-0.395000	-4.263706	-0.696975	99.509199	-0.102994	-0.192776	-0.016973	89.618323	0.414121	-0.224769	15.744316	5.469536	-22.232011	-34.946253	37.898768	7.936095	47.684519	32.975874	21.952890	4.569192	49.238993	32.854459	11.611628	-4.802864	63.442796	42.526524	7.404214	-7.703717	61.743707	41.049649
-0.385000	-4.263706	-0.696975	99.509199	-0.102929	-0.192551	-0.016875	89.755329	0.401328	-0.121817	15.714329	5.591451	-22.192804	-34.908211	37.868805	7.932484	47.712209	32.982849	21.951934	4.565270	49.336935	32.900985	11.596377	-4.790386	63.491944	42.534217	7.478957	-7.762599	61.699280	41.013516
-0.375000	-4.263706	-0.696975	99.509199	-0.102789	-0.192249	-0.016733	89.900651	0.364420	0.006900	15.686797	5.730706	-22.145786	-34.863729	37.817252	7.932584	47.754566	33.001679	21.971307	4.556428	49.438747	32.943779	11.586234	-4.778982	63.544475	42.539539	7.578663	-7.829733	61.673318	40.986555
-0.365000	-4.263706	-0.696975	99.509199	-0.102547	-0.191831	-0.016520	90.046187	0.294278	0.176022	15.667875	5.860231	-22.097818	-34.816537	37.722905	7.924070	47.800883	33.028233	21.998231	4.544339	49.508718	32.964870	11.578046	-4.770657	63.578049	42.532546	7.704511	-7.888454	61.655424	40.962743
-0.355000	-4.263706	-0.696975	99.509199	-0.102178	-0.191250	-0.016207	90.192176	0.193846	0.396819	15.668231	5.958196	-22.054578	-34.770171	37.560805	7.893211	47.838958	33.057073	22.017342	4.530878	49.509631	32.946447	11.569091	-4.765981	63.563886	42.500448	7.858634	-7.921317	61.619726	40.927966
-0.345000	-4.263706	-0.696975	99.509199	-0.101652	-0.190459	-0.015761	90.345959	0.081331	0.669113	15.699306	6.025473	-22.017782	-34.726623	37.312129	7.831153	47.863198	33.085252	22.016186	4.517116	49.420804	32.879736	11.559885	-4.764589	63.476385	42.431820	8.044522	-7.915673	61.530251	40.863006
-0.335000	-4.263706	-0.696975	99.509199	-0.100938	-0.189425	-0.015152	90.516332	-0.011918	0.976925	15.765760	6.098158	-21.984874	-34.686215	36.973717	7.738038	47.880247	33.114690	21.988301	4.503145	49.251454	32.770915	11.555484	-4.765589	63.305071	42.321804	8.266583	-7.868498	61.353599	40.750092
-0.325000	-4.263706	-0.696975	99.509199	-0.099997	-0.188133	-0.014356	90.706457	-0.048801	1.291553	15.857844	6.246180	-21.951535	-34.648933	36.561687	7.622154	47.908401	33.151499	21.933646	4.489021	49.041864	32.640489	11.564521	-4.767359	63.063259	42.175763	8.528429	-7.788442	61.074073	40.580695
-0.315000	-4.263706	-0.696975	99.509199	-0.098783	-0.186584	-0.013355	90.909710	0.002935	1.582527	15.949783	6.554801	-21.915145	-34.616340	36.105259	7.494440	47.970480	33.202636	21.858151	4.475577	48.850678	32.515958	11.595965	-4.766978	62.786877	42.008642	8.829365	-7.692661	60.703182	40.360552
-0.305000	-4.263706	-0.696975	99.509199	-0.097242	-0.184790	-0.012131	91.111350	0.160236	1.833003	16.008830	7.094848	-21.876050	-34.592414	35.631030	7.361529	48.083167	33.271951	21.773437	4.463260	48.731788	32.420332	11.653818	-4.759963	62.520422	41.839117	9.159993	-7.598135	60.277205	40.108559
-0.295000	-4.263706	-0.696975	99.509199	-0.095311	-0.182753	-0.010666	91.294315	0.417607	2.053248	16.013737	7.894682	-21.834557	-34.582119	35.143866	7.220793	48.247791	33.358022	21.695469	4.448994	48.708650	32.360802	11.731245	-4.740722	62.295082	41.680959	9.500690	-7.511526	59.842645	39.849004
-0.285000	-4.263706	-0.696975	99.509199	-0.092913	-0.180462	-0.008934	91.443191	0.745240	2.284938	15.974184	8.927366	-21.784912	-34.588136	34.614763	7.059112	48.447767	33.455263	21.640870	4.423732	48.757713	32.322720	11.808342	-4.703715	62.110986	41.536433	9.827761	-7.424193	59.435519	39.600010
-0.275000	-4.263706	-0.696975	99.509199	-0.089964	-0.177885	-0.006905	91.541599	1.093453	2.591131	15.939489	10.119105	-21.710883	-34.607924	33.984097	6.855339	48.655604	33.558124	21.622450	4.373848	48.811294	32.272450	11.858499	-4.645015	61.934708	41.395436	10.127699	-7.315952	59.062903	39.363224
-0.265000	-4.263706	-0.696975	99.509199	-0.086380	-0.174986	-0.004548	91.565783	1.404377	3.032002	15.989414	11.374553	-21.587815	-34.633815	33.180902	6.585701	48.847357	33.666080	21.647077	4.286818	48.781056	32.168080	11.863542	-4.563819	61.713761	41.240312	10.412026	-7.164815	58.694535	39.120103
-0.255000	-4.263706	-0.696975	99.509199	-0.082081	-0.171741	-0.001833	91.483622	1.630964	3.633161	16.209586	12.608479	-21.392413	-34.657716	32.150879	6.231033	49.017012	33.785653	21.716647	4.158442	48.592148	31.973056	11.829978	-4.463267	61.399035	41.052941	10.720531	-6.956315	58.270015	38.838469
-0.245000	-4.263706	-0.696975	99.509199	-0.077004	-0.168152	0.001259	91.264992	1.759470	4.358366	16.662231	13.774719	-21.116347	-34.679752	30.882657	5.784454	49.182302	33.926644	21.829670	3.997804	48.214499	31.668033	11.795104	-4.350179	60.962679	40.820414	11.105574	-6.688296	57.723257	38.489121
-0.235000	-4.263706	-0.696975	99.509199	-0.071110	-0.164256	0.004740	90.898030	1.826141	5.099468	17.364273	14.887108	-20.776369	-34.717268	29.422920	5.257931	49.378715	34.093690	21.981117	3.827607	47.681894	31.259128	11.816893	-4.233978	60.404598	40.537932	11.602505	-6.372041	57.018920	38.066907
-0.225000	-4.263706	-0.696975	99.509199	-0.064396	-0.160135	0.008601	90.397670	1.916609	5.692907	18.280104	16.026769	-20.414132	-34.808252	27.873687	4.685520	49.645717	34.278558	22.161256	3.679654	47.092907	30.781445	11.951426	-4.125316	59.748396	40.209594	12.201869	-6.032599	56.186271	37.606016
-0.215000	-4.263706	-0.696975	99.509199	-0.056902	-0.155907	0.012814	89.797137	2.141515	5.964289	19.330320	17.327695	-20.083473	-35.003759	26.369199	4.120218	50.011442	34.458883	22.356345	3.586725	46.587255	30.294506	12.229112	-4.034526	59.029942	39.847761	12.839911	-5.708306	55.329138	37.178399
-0.205000	-4.263706	-0.696975	99.509199	-0.048724	-0.151717	0.017320	89.126818	2.592879	5.790724	20.413212	18.936487	-19.828932	-35.348452	25.037440	3.622351	50.478674	34.604300	22.553628	3.572834	46.294789	29.866007	12.641814	-3.969665	58.280591	39.470858	13.415665	-5.445705	54.595079	36.869944
